# This file uses centimeters as units for non-parametric coordinates.

mtllib cell.mtl
g default
v -0.963089 4.500000 -2.846700
v -0.963089 4.500000 -5.989869
v 3.500000 4.500000 -5.989869
v 3.500000 4.500000 -2.846700
v -3.500000 4.500000 6.541650
v -3.500000 4.500000 -2.846166
v -0.963089 4.500000 6.541650
v -3.500000 -4.500000 6.541650
v -0.963089 -4.500000 6.541650
v 4.500000 -5.500000 -7.541650
v 4.500000 5.500000 -7.541650
v 4.500000 5.500000 7.541650
v 4.500000 -5.500000 7.541650
v 3.500000 -4.500000 6.541650
v 3.500000 4.500000 6.541650
v 3.500000 -4.500000 -2.846700
v -4.500000 5.500000 -7.541650
v -4.500000 5.500000 7.541650
v 0.551984 -1.348414 6.541650
v -0.551984 -1.348414 6.541650
v -0.289265 -1.083010 7.541650
v 0.289265 -1.083010 7.541650
v -0.551984 3.705127 6.541650
v -0.289265 3.439722 7.541650
v 0.289265 3.439722 7.541650
v 0.551984 3.705127 6.541650
v -4.500000 -5.500000 7.541650
v -0.963089 4.500000 -6.541650
v 3.500000 4.500000 -6.541650
v 3.500000 -4.500000 -5.989869
v -0.963089 -4.500000 -2.846700
v -0.723152 3.063023 -6.541650
v 3.202775 3.063023 -6.541650
v -3.500000 -4.500000 -2.846166
v 3.202775 -4.498560 -7.541650
v 3.202775 3.063023 -7.541650
v -0.723152 3.063023 -7.541650
v 3.500000 -4.500000 -6.541650
v 3.204538 -4.499280 -6.541650
v -0.724835 -4.499280 -6.541650
v -4.500000 -5.500000 -7.541650
v -0.723152 -4.498560 -7.541650
v -0.963089 -4.500000 -5.989869
v -0.963089 -4.500000 -6.541650
vt 0.695232 0.685512
vt 0.693192 0.583199
vt 0.838470 0.580302
vt 0.840510 0.682615
vt 0.553982 0.754394
vt 0.618746 0.992757
vt 0.248391 0.755092
vt 0.248194 0.668952
vt 0.553785 0.668254
vt 0.604244 0.541047
vt 0.604280 0.459607
vt 0.093690 0.812255
vt 0.093238 0.894353
vt 0.446743 0.654540
vt 0.446657 0.617055
vt 0.187467 0.335391
vt 0.186701 0.016790
vt 0.024451 0.757900
vt 0.051512 0.705505
vt 0.016362 0.974112
vt 0.921235 0.372433
vt 0.983044 0.370651
vt 0.970005 0.429001
vt 0.937614 0.429935
vt 0.568251 0.489118
vt 0.363970 0.489329
vt 0.374655 0.447523
vt 0.557479 0.447334
vt 0.560410 0.423137
vt 0.377606 0.420448
vt 0.367494 0.378499
vt 0.571753 0.381505
vt 0.936451 0.448086
vt 0.968852 0.447637
vt 0.984369 0.505378
vt 0.922540 0.506235
vt 0.553439 0.516712
vt 0.275066 0.617447
vt 0.275152 0.654932
vt 0.017460 0.774435
vt 0.179734 0.975010
vt 0.103740 0.894411
vt 0.603272 0.446654
vt 0.247848 0.517411
vt 0.104191 0.812312
vt 0.612654 0.687175
vt 0.313941 0.849683
vt 0.519050 0.015991
vt 0.519817 0.334592
vt 0.598693 0.846995
vt 0.599972 0.982363
vt 0.315219 0.985050
vt 0.013715 0.336354
vt 0.022523 0.284919
vt 0.163145 0.285505
vt 0.661489 0.334486
vt 0.661145 0.021016
vt 0.960481 0.543005
vt 0.991378 0.543535
vt 0.987374 0.777169
vt 0.135366 0.704464
vt 0.216681 0.755515
vt 0.869827 0.973984
vt 0.870259 0.794962
vt 0.915859 0.795072
vt 0.915427 0.974094
vt 0.630318 0.015723
vt 0.631085 0.334324
vt 0.956476 0.776661
vt 0.173577 0.337020
vt 0.164336 0.014631
vt 0.933213 0.776727
vt 0.902315 0.776216
vt 0.906178 0.542558
vt 0.846551 0.357754
vt 0.021535 0.522953
vt 0.174919 0.014649
vt 0.601266 0.365239
vt 0.712904 0.362488
vt 0.203065 0.977147
vt 0.219885 0.985950
vt 0.049508 0.543999
vt 0.847817 0.431409
vt 0.724378 0.433531
vt 0.937076 0.543091
vt 0.203149 0.986109
vt 0.313231 0.772738
vt 0.015056 0.013984
vt 0.336725 0.362104
vt 0.336321 0.503092
vt 0.022212 0.502193
vt 0.022616 0.361205
vt 0.876779 0.782367
vt 0.859648 0.782115
vt 0.863750 0.502680
vt 0.880882 0.502932
vt 0.979311 0.793990
vt 0.978908 0.972933
vt 0.933328 0.972907
vt 0.933731 0.793807
vt 0.133361 0.542958
vt 0.725289 0.530335
vt 0.725116 0.456670
vt 0.848573 0.456379
vt 0.848747 0.530044
vt 0.723111 0.359876
vt 0.213765 0.520567
vt 0.714910 0.443903
vt 0.180832 0.775334
vt 0.715952 0.459657
vt 0.715915 0.541097
vt 0.597967 0.770049
vt 0.701325 0.991111
vt 0.846603 0.988215
vt 0.692834 0.565238
vt 0.838112 0.562341
vt 0.988122 0.020657
vt 0.988467 0.334127
vt 0.649851 0.015676
vt 0.650618 0.334277
vt 0.023590 0.014045
vt 0.218607 0.850583
vt 0.201871 0.850741
vt 0.201939 0.857967
vn 0.000000 -1.000000 0.000000
vn 0.000000 -1.000000 0.000000
vn 0.000000 -1.000000 0.000000
vn 0.000000 -1.000000 0.000000
vn 0.000000 -1.000000 0.000000
vn 0.000000 -1.000000 0.000000
vn 0.000000 -1.000000 0.000000
vn 0.000000 0.000000 -1.000000
vn 0.000000 0.000000 -1.000000
vn 0.000000 0.000000 -1.000000
vn 0.000000 0.000000 -1.000000
vn 1.000000 0.000000 0.000000
vn 1.000000 0.000000 0.000000
vn 1.000000 0.000000 0.000000
vn 1.000000 0.000000 0.000000
vn -1.000000 0.000000 0.000000
vn -1.000000 0.000000 0.000000
vn -1.000000 0.000000 0.000000
vn -1.000000 0.000000 0.000000
vn 0.000000 1.000000 0.000000
vn 0.000000 1.000000 0.000000
vn 0.000000 1.000000 0.000000
vn 0.000000 1.000000 0.000000
vn 0.000000 0.966538 -0.256524
vn 0.000000 0.966538 -0.256524
vn 0.000000 0.966538 -0.256524
vn 0.000000 0.966538 -0.256524
vn 0.000000 -1.000000 0.000000
vn 0.967179 0.000000 -0.254097
vn 0.967179 0.000000 -0.254097
vn 0.967179 0.000000 -0.254097
vn 0.967179 0.000000 -0.254097
vn -0.967179 0.000000 -0.254097
vn -0.967179 0.000000 -0.254097
vn -0.967179 0.000000 -0.254097
vn -0.967179 0.000000 -0.254097
vn 0.000000 -0.966538 -0.256524
vn 0.000000 -0.966538 -0.256524
vn 0.000000 -0.966538 -0.256524
vn 0.000000 -0.966538 -0.256524
vn 0.000000 0.000000 -1.000000
vn 0.000000 0.000000 -1.000000
vn 0.000000 0.000000 -1.000000
vn 0.000000 0.000000 1.000000
vn 0.000000 0.000000 1.000000
vn 0.000000 0.000000 1.000000
vn 0.000000 0.000000 1.000000
vn 0.000000 0.000000 -1.000000
vn 0.000000 0.000000 -1.000000
vn 0.000000 0.000000 -1.000000
vn 0.000000 0.000000 1.000000
vn 0.000000 0.000000 1.000000
vn 0.000000 0.000000 1.000000
vn 0.000000 0.000000 1.000000
vn 0.000000 -1.000000 0.000000
vn 0.000000 -1.000000 0.000000
vn -1.000000 0.000000 0.000000
vn -1.000000 0.000000 0.000000
vn 0.000000 1.000000 0.000000
vn 0.000000 1.000000 0.000000
vn 0.000000 1.000000 0.000000
vn 0.000000 1.000000 0.000000
vn 0.000000 0.000000 1.000000
vn 0.000001 0.000000 1.000000
vn -0.000000 0.000000 1.000000
vn -0.000000 0.000000 1.000000
vn 1.000000 0.000000 0.000000
vn 1.000000 0.000000 0.000000
vn 1.000000 0.000000 0.000000
vn 1.000000 0.000000 0.000000
vn -1.000000 -0.000117 0.000882
vn -1.000000 -0.000117 0.000882
vn -1.000000 -0.000117 0.000882
vn -1.000000 -0.000117 0.000882
vn 0.000000 0.000000 -1.000000
vn 0.000000 0.000000 -1.000000
vn 0.000000 0.000000 -1.000000
vn 0.000000 0.000000 -1.000000
vn 0.000000 -1.000000 0.000000
vn 0.000000 -1.000000 0.000000
vn 0.000000 -1.000000 0.000000
vn 0.000000 -1.000000 0.000000
vn -1.000000 0.000000 0.000000
vn -1.000000 0.000000 0.000000
vn -0.000001 0.000000 1.000000
vn -0.000001 0.000000 1.000000
vn 1.000000 -0.000111 0.000842
vn 1.000000 -0.000111 0.000842
vn 1.000000 -0.000111 0.000842
vn 1.000000 -0.000111 0.000842
vn 0.000000 0.000000 -1.000000
vn 0.000000 0.000000 -1.000000
vn 0.000019 1.000000 0.000968
vn 0.000004 1.000000 0.000133
vn 0.002437 0.999997 0.000000
vn -1.000000 0.000000 0.000000
vn -1.000000 0.000000 0.000000
vn -1.000000 0.000000 0.000000
vn -1.000000 0.000000 0.000000
vn 0.000000 1.000000 0.000000
vn 0.000000 1.000000 0.000000
vn 0.000000 -1.000000 0.000000
vn 0.000000 -1.000000 0.000000
vn 0.000000 -1.000000 0.000000
vn 0.000000 -1.000000 0.000000
vn -0.000003 1.000000 0.000128
vn -0.000099 0.033234 0.999448
vn -0.000020 0.960664 0.277713
vn 0.778211 0.000000 0.628002
vn 0.778211 0.000000 0.628002
vn 0.778211 0.000000 0.628002
vn 0.778211 0.000000 0.628002
vn 1.000000 0.000000 0.000000
vn 1.000000 0.000000 0.000000
vn 1.000000 0.000000 0.000000
vn 1.000000 0.000000 0.000000
vn 0.000000 1.000000 0.000719
vn 0.000000 1.000000 0.000719
vn 0.000000 0.000000 -1.000000
vn 0.000000 0.000000 -1.000000
s 1
g room
usemtl initialShadingGroup
f 1/1/1 2/2/2 3/3/3 4/4/4
f 5/6/5 6/46/6 1/1/1 7/113/7
s 2
f 8/5/8 5/7/9 7/8/10 9/9/11
s off
f 10/10/12 11/11/13 12/110/14 13/111/15
s 3
f 14/16/16 15/17/17 4/48/18 16/49/19
s off
f 11/102/20 17/103/21 18/104/22 12/105/23
f 19/21/24 20/22/25 21/23/26 22/24/27
s 1
f 7/113/7 1/1/1 4/4/4 15/114/28
s off
f 20/25/29 23/26/30 24/27/31 21/28/32
f 22/29/33 25/30/34 26/31/35 19/32/36
f 25/33/37 24/34/38 23/35/39 26/36/40
s 2
f 9/9/11 20/14/41 19/15/42 14/37/43
s 4
f 25/12/44 22/13/45 13/20/46 12/40/47
s 2
f 26/38/48 23/39/49 7/8/10 15/44/50
s 4
f 27/41/51 21/42/52 24/45/53 18/109/54
s 1
f 3/3/3 2/2/2 28/115/55 29/116/56
f 6/46/6 2/2/2 1/1/1
s 3
f 16/49/19 4/48/18 3/67/57 30/68/58
s 5
f 31/47/59 9/50/60 14/51/61 16/52/62
f 28/53/63 32/54/64 33/55/65 29/70/66
s off
f 34/56/67 6/57/68 5/117/69 8/118/70
f 33/58/71 36/59/72 35/60/73 39/69/74
s 7
f 11/18/75 36/19/76 37/61/77 17/62/78
s off
f 33/63/79 32/64/80 37/65/81 36/66/82
s 3
f 30/68/58 3/67/57 29/119/83 38/120/84
s 5
f 33/55/65 39/71/85 38/77/86 29/70/66
s off
f 37/72/87 32/73/88 40/74/89 42/85/90
s 7
f 11/18/75 10/76/91 35/82/92 36/19/76
s 5
f 39/80/93 30/81/94 38/86/95
s off
f 17/43/96 41/78/97 27/79/98 18/108/99
s 5
f 34/87/100 8/112/101 9/50/60 31/47/59
s off
f 41/75/102 10/83/103 13/84/104 27/106/105
s 5
f 34/87/100 31/47/59 43/122/106
f 44/123/107 43/122/106 40/124/108
s off
f 34/89/109 43/90/110 2/91/111 6/92/112
f 28/93/113 2/94/114 43/95/115 44/96/116
s 5
f 43/122/106 31/47/59 16/52/62 30/81/94
f 28/53/63 44/88/107 40/121/108 32/54/64
f 40/124/108 43/122/106 30/81/94 39/80/93
f 35/97/117 42/98/118 40/99/108 39/100/93
s 7
f 17/62/78 37/61/77 42/101/119 41/107/120
f 35/82/92 10/76/91 41/107/120 42/101/119
s 2
f 7/8/10 23/39/49 20/14/41 9/9/11
f 14/37/43 19/15/42 26/38/48 15/44/50
s 4
f 18/109/54 24/45/53 25/12/44 12/40/47
f 13/20/46 22/13/45 21/42/52 27/41/51
