# This file uses centimeters as units for non-parametric coordinates.

mtllib lightFixture_low.mtl
g default
v -1.227978 -0.434076 4.274199
v 1.227978 -0.434076 4.274199
v -1.335386 0.434076 4.388430
v 1.335386 0.434076 4.388430
v -1.335386 0.434076 -4.388430
v 1.335386 0.434076 -4.388430
v -1.227978 -0.434076 -4.274199
v 1.227978 -0.434076 -4.274199
v 1.335386 0.018033 4.388430
v -1.335386 0.018033 4.388430
v -1.335386 0.018033 -4.388430
v 1.335386 0.018033 -4.388430
v 0.538969 -0.434076 4.274199
v 0.586111 0.018033 4.388430
v 0.586111 0.434076 4.388430
v 0.586111 0.434076 -4.388430
v 0.586111 0.018033 -4.388430
v 0.538969 -0.434076 -4.274199
v -0.489174 -0.434076 4.274199
v -0.531961 0.018033 4.388430
v -0.531961 0.434076 4.388430
v -0.531961 0.434076 -4.388430
v -0.531961 0.018033 -4.388430
v -0.489174 -0.434076 -4.274199
v 1.227978 -0.434076 3.615895
v 0.627831 -0.434076 3.615895
v -0.578037 -0.434076 3.615895
v -1.227978 -0.434076 3.615895
v -1.335386 0.018033 3.712532
v -1.335386 0.434076 3.712532
v -0.531961 0.434076 3.712532
v 0.586111 0.434076 3.712532
v 1.335386 0.434076 3.712532
v 1.335386 0.018033 3.712532
v 1.227978 -0.434076 -3.590918
v 0.627831 -0.434076 -3.590918
v -0.578037 -0.434076 -3.590918
v -1.227978 -0.434076 -3.590918
v -1.335386 0.018033 -3.686889
v -1.335386 0.434076 -3.686889
v -0.531961 0.434076 -3.686889
v 0.586111 0.434076 -3.686889
v 1.335386 0.434076 -3.686889
v 1.335386 0.018033 -3.686889
v -0.578037 -0.370251 -3.590918
v -0.578037 -0.370251 3.615895
v 0.627831 -0.370251 -3.590918
v 0.627831 -0.370251 3.615895
vt 0.032286 0.026406
vt 0.147162 0.368462
vt 0.051829 0.026450
vt 0.673875 0.279693
vt 0.383529 0.852769
vt 0.749446 0.279693
vt 0.877367 0.965681
vt 0.766950 0.965445
vt 0.780297 0.934399
vt 0.877434 0.934607
vt 0.562216 0.160186
vt 0.559462 0.029071
vt 0.048788 0.157558
vt 0.028724 0.157513
vt 0.579004 0.029070
vt 0.216649 0.368460
vt 0.048518 0.277855
vt 0.307964 0.852841
vt 0.303815 0.721989
vt 0.582280 0.160184
vt 0.212626 0.499317
vt 0.600076 0.934014
vt 0.137061 0.499318
vt 0.749446 0.299773
vt 0.673875 0.299773
vt 0.373302 0.721923
vt 0.613289 0.965117
vt 0.212628 0.619697
vt 0.510314 0.964896
vt 0.137063 0.619698
vt 0.854613 0.299773
vt 0.854613 0.279693
vt 0.383643 0.973150
vt 0.510381 0.933822
vt 0.614121 0.576350
vt 0.582289 0.280481
vt 0.072490 0.529350
vt 0.077680 0.314313
vt 0.028453 0.277809
vt 0.600777 0.606260
vt 0.260415 0.158034
vt 0.257946 0.026914
vt 0.925090 0.279693
vt 0.925090 0.299773
vt 0.673875 0.048557
vt 0.749446 0.048557
vt 0.562224 0.280483
vt 0.331258 0.160202
vt 0.511083 0.606068
vt 0.350589 0.160201
vt 0.096933 0.314777
vt 0.091743 0.529815
vt 0.276774 0.026956
vt 0.511147 0.576129
vt 0.279746 0.158078
vt 0.260144 0.278331
vt 0.749446 0.067903
vt 0.673875 0.067903
vt 0.854613 0.067903
vt 0.854613 0.048557
vt 0.350597 0.280498
vt 0.331266 0.280499
vt 0.959253 0.529176
vt 0.069636 0.647593
vt 0.620479 0.531232
vt 0.088889 0.648058
vt 0.619349 0.344951
vt 0.958123 0.342896
vt 0.767782 0.576678
vt 0.780998 0.606646
vt 0.878134 0.606853
vt 0.878198 0.576915
vt 0.308078 0.973221
vt 0.202805 0.852941
vt 0.202919 0.973321
vt 0.132447 0.973388
vt 0.279475 0.278374
vt 0.925090 0.067903
vt 0.313349 0.368459
vt 0.334516 0.029088
vt 0.353343 0.029086
vt 0.378153 0.368459
vt 0.132333 0.853008
vt 0.207115 0.722080
vt 0.142311 0.722142
vt 0.925090 0.048557
vt 0.388257 0.499315
vt 0.317785 0.499316
vt 0.317786 0.619696
vt 0.388258 0.619695
vt 0.061593 0.980873
vt 0.064446 0.862631
vt 0.083700 0.863095
vt 0.080846 0.981338
vn 0.000000 -0.244965 0.969532
vn 0.000000 -0.244965 0.969532
vn 0.000000 -0.127732 0.991809
vn 0.000000 -0.124829 0.992178
vn 0.000000 1.000000 0.000000
vn 0.000000 1.000000 0.000000
vn 0.000000 1.000000 0.000000
vn 0.000000 1.000000 0.000000
vn 0.000000 -0.124829 -0.992178
vn 0.000000 -0.127732 -0.991809
vn 0.000000 -0.244965 -0.969532
vn 0.000000 -0.244965 -0.969532
vn 0.000000 -1.000000 0.000000
vn 0.000000 -1.000000 0.000000
vn 0.000000 -1.000000 0.000000
vn 0.000000 -1.000000 0.000000
vn 0.992606 -0.121382 0.000000
vn 0.972921 -0.231139 0.000000
vn 0.972921 -0.231139 0.000000
vn 0.992641 -0.121097 0.000000
vn -0.972921 -0.231139 0.000000
vn -0.972921 -0.231139 0.000000
vn -0.992606 -0.121382 0.000000
vn -0.992641 -0.121097 0.000000
vn 0.000000 0.000000 1.000000
vn 0.000000 0.000000 1.000000
vn -1.000000 0.000000 0.000000
vn -1.000000 0.000000 0.000000
vn 0.000000 0.000000 -1.000000
vn 0.000000 0.000000 -1.000000
vn 1.000000 0.000000 0.000000
vn 1.000000 0.000000 0.000000
vn 0.000000 -0.244965 0.969532
vn 0.000000 -0.244965 0.969532
vn 0.000000 -0.124829 0.992178
vn 0.000000 -0.127667 0.991817
vn 0.000000 0.000000 1.000000
vn 0.000000 0.000000 1.000000
vn 0.000000 1.000000 0.000000
vn 0.000000 1.000000 0.000000
vn 0.000000 1.000000 0.000000
vn 0.000000 1.000000 0.000000
vn 0.000000 -0.127667 -0.991817
vn 0.000000 0.000000 -1.000000
vn 0.000000 0.000000 -1.000000
vn 0.000000 -0.124829 -0.992178
vn 0.000000 -0.244965 -0.969532
vn 0.000000 -0.244965 -0.969532
vn 0.000000 -1.000000 -0.000000
vn 0.000000 -1.000000 -0.000000
vn 0.000000 -1.000000 -0.000000
vn 0.000000 -1.000000 -0.000000
vn 0.000000 -1.000000 0.000000
vn 0.000000 -1.000000 0.000000
vn 0.000000 -1.000000 0.000000
vn 0.000000 -1.000000 0.000000
vn 0.000000 -1.000000 0.000000
vn 0.000000 -1.000000 0.000000
vn 0.000000 -1.000000 0.000000
vn 0.000000 -1.000000 0.000000
vn -0.992607 -0.121373 0.000000
vn -0.972921 -0.231139 0.000000
vn -0.972921 -0.231139 0.000000
vn -0.992641 -0.121097 0.000000
vn -1.000000 0.000000 0.000000
vn -1.000000 0.000000 0.000000
vn 0.000000 1.000000 0.000000
vn 0.000000 1.000000 0.000000
vn 0.000000 1.000000 0.000000
vn 0.000000 1.000000 0.000000
vn 0.000000 1.000000 0.000000
vn 0.000000 1.000000 0.000000
vn 0.000000 1.000000 0.000000
vn 0.000000 1.000000 0.000000
vn 0.992641 -0.121097 0.000000
vn 0.992607 -0.121373 0.000000
vn 1.000000 0.000000 0.000000
vn 1.000000 0.000000 0.000000
vn 0.972921 -0.231139 0.000000
vn 0.972921 -0.231139 0.000000
vn 0.000000 -1.000000 0.000000
vn 0.000000 -1.000000 0.000000
vn 0.000000 -1.000000 0.000000
vn 0.000000 -1.000000 0.000000
vn 1.000000 0.000000 0.000000
vn 1.000000 0.000000 0.000000
vn 1.000000 0.000000 0.000000
vn 1.000000 0.000000 0.000000
vn 0.000000 0.000000 1.000000
vn 0.000000 0.000000 1.000000
vn 0.000000 0.000000 1.000000
vn 0.000000 0.000000 1.000000
vn -1.000000 0.000000 0.000000
vn -1.000000 0.000000 0.000000
vn -1.000000 0.000000 0.000000
vn -1.000000 0.000000 0.000000
vn 0.000000 0.000000 -1.000000
vn 0.000000 0.000000 -1.000000
vn 0.000000 0.000000 -1.000000
vn 0.000000 0.000000 -1.000000
s 1
g light_low
usemtl initialShadingGroup
f 1/2/1 19/16/2 20/21/3 10/23/4
s 2
f 40/4/5 41/6/6 22/24/7 5/25/8
s 3
f 11/5/9 23/18/10 24/19/11 7/26/12
s 4
f 7/7/13 24/8/14 37/9/15 38/10/16
s 5
f 44/11/17 35/12/18 8/15/19 12/20/20
s 6
f 7/1/21 38/3/22 39/13/23 11/14/24
s 1
f 10/23/4 20/21/3 21/28/25 3/30/26
s 6
f 11/14/24 39/13/23 40/17/27 5/39/28
s 3
f 5/33/29 22/73/30 23/18/10 11/5/9
s 5
f 44/11/17 12/20/20 6/36/31 43/47/32
s 1
f 13/79/33 2/82/34 9/87/35 14/88/36
f 15/89/37 14/88/36 9/87/35 4/90/38
s 2
f 16/31/39 42/32/40 43/43/41 6/44/42
s 3
f 17/74/43 16/75/44 6/76/45 12/83/46
f 18/84/47 17/74/43 12/83/46 8/85/48
s 4
f 36/22/49 18/27/50 8/29/51 35/34/52
s 1
f 19/16/2 13/79/33 14/88/36 20/21/3
f 21/28/25 20/21/3 14/88/36 15/89/37
s 2
f 22/24/7 41/6/6 42/32/40 16/31/39
s 3
f 23/18/10 22/73/30 16/75/44 17/74/43
f 24/19/11 23/18/10 17/74/43 18/84/47
s 4
f 37/9/15 24/8/14 18/27/50 36/22/49
f 13/35/53 26/40/54 25/49/55 2/54/56
f 19/69/57 27/70/58 26/40/54 13/35/53
f 28/71/59 27/70/58 19/69/57 1/72/60
s 6
f 29/41/61 28/42/62 1/53/63 10/55/64
f 30/56/65 29/41/61 10/55/64 3/77/66
s 2
f 3/45/67 21/46/68 31/57/69 30/58/70
f 32/59/71 31/57/69 21/46/68 15/60/72
f 33/78/73 32/59/71 15/60/72 4/86/74
s 5
f 9/48/75 34/50/76 33/61/77 4/62/78
f 2/80/79 25/81/80 34/50/76 9/48/75
s 4
f 26/40/54 36/22/49 35/34/52 25/49/55
s off
f 46/63/81 45/65/82 47/67/83 48/68/84
s 4
f 38/10/16 37/9/15 27/70/58 28/71/59
s 6
f 39/13/23 38/3/22 28/42/62 29/41/61
f 40/17/27 39/13/23 29/41/61 30/56/65
s 2
f 30/58/70 31/57/69 41/6/6 40/4/5
f 42/32/40 41/6/6 31/57/69 32/59/71
f 43/43/41 42/32/40 32/59/71 33/78/73
s 5
f 34/50/76 44/11/17 43/47/32 33/61/77
f 34/50/76 25/81/80 35/12/18 44/11/17
s off
f 27/37/85 37/38/86 45/51/87 46/52/88
f 37/91/89 36/92/90 47/93/91 45/94/92
f 36/92/93 26/64/94 48/66/95 47/93/96
f 26/64/97 27/37/98 46/52/99 48/66/100
