# This file uses centimeters as units for non-parametric coordinates.

mtllib shelf_low.mtl
g default
v -1.750000 2.117663 0.747779
v 1.750000 2.117663 0.747779
v -1.750000 2.217663 0.750000
v 1.750000 2.217663 0.750000
v -1.750000 2.217663 -0.750000
v 1.750000 2.217663 -0.750000
v -1.750000 2.117663 -0.750000
v 1.750000 2.117663 -0.750000
v 1.750000 2.117663 -0.626532
v -1.750000 2.117663 -0.626532
v -1.750000 2.217663 -0.626532
v 1.750000 2.217663 -0.626532
v -1.750000 1.295931 -0.750000
v 1.750000 1.295931 -0.750000
v 1.750000 1.295931 -0.625523
v -1.750000 1.295931 -0.625523
v 1.702861 1.295931 -0.625523
v 1.702861 1.295931 -0.750000
v 1.702861 2.117663 -0.750000
v 1.702861 2.217663 -0.750000
v 1.702861 2.217663 -0.626532
v 1.702861 2.217663 0.750000
v 1.702861 2.117663 0.747779
v 1.702942 2.117663 -0.625961
v -1.705369 1.295931 -0.625523
v -1.705369 1.295931 -0.750000
v -1.705369 2.117663 -0.750000
v -1.705369 2.217663 -0.750000
v -1.705369 2.217663 -0.626532
v -1.705369 2.217663 0.750000
v -1.705369 2.117663 0.747779
v -1.701505 2.117663 -0.625961
v 1.702943 2.117707 0.714951
v -1.702372 2.117228 0.715258
v 1.703023 2.177954 -0.625390
v -1.697640 2.177954 -0.625390
v 1.703023 2.177954 0.715036
v -1.697640 2.177954 0.715036
v -1.705265 1.318236 -0.625535
v 1.702864 1.323051 -0.625538
vt 0.595879 0.761560
vt 0.659612 0.596142
vt 0.213431 0.374130
vt 0.213372 0.379030
vt 0.617059 0.761168
vt 0.170136 0.477520
vt 0.170218 0.483771
vt 0.156957 0.483944
vt 0.614087 0.803147
vt 0.617376 0.778322
vt 0.200537 0.378875
vt 0.200596 0.373975
vt 0.657133 0.598979
vt 0.649640 0.592433
vt 0.613937 0.820304
vt 0.652120 0.589596
vt 0.973683 0.614813
vt 0.553306 0.508271
vt 0.156876 0.477693
vt 0.047986 0.485368
vt 0.356528 0.375858
vt 0.356468 0.380758
vt 0.016119 0.964779
vt 0.972802 0.766643
vt 0.873937 0.581473
vt 0.047905 0.479117
vt 0.150970 0.025722
vt 0.217711 0.019829
vt 0.204876 0.019674
vt 0.053723 0.805596
vt 0.718173 0.965000
vt 0.873030 0.144655
vt 0.717469 0.613453
vt 0.969909 0.805188
vt 0.203249 0.825712
vt 0.717514 0.601941
vt 0.027155 0.890491
vt 0.974302 0.957851
vt 0.974875 0.144289
vt 0.973635 0.603293
vt 0.360808 0.021557
vt 0.043902 0.816033
vt 0.041999 0.027146
vt 0.217767 0.015189
vt 0.592754 0.820119
vt 0.204932 0.015034
vt 0.592904 0.802962
vt 0.596197 0.778714
vt 0.360864 0.016918
vt 0.021756 0.795193
vt 0.031578 0.784756
vt 0.763833 0.051028
vt 0.741688 0.030187
vt 0.773132 0.041147
vt 0.750987 0.020306
vt 0.852808 0.756806
vt 0.849718 0.822362
vt 0.555785 0.505433
vt 0.850249 0.805208
vt 0.612879 0.961284
vt 0.591524 0.961098
vt 0.838849 0.390984
vt 0.164231 0.025549
vt 0.150892 0.019804
vt 0.853507 0.773953
vt 0.041922 0.021228
vt 0.164154 0.019631
vt 0.831356 0.384438
vt 0.593271 0.620600
vt 0.614624 0.620205
vt 0.841196 0.388298
vt 0.833703 0.381751
vt 0.735021 0.300275
vt 0.737369 0.297589
vt 0.976397 0.580633
vt 0.982603 0.144252
vt 0.984123 0.580111
vt 0.974520 0.969391
vt 0.718544 0.976631
vt 0.969787 0.800929
vt 0.869554 0.144667
vt 0.871079 0.581496
vt 0.557212 0.824201
vt 0.711937 0.965214
vt 0.557808 0.963721
vt 0.203845 0.965232
vt 0.947458 0.012362
vt 0.972771 0.771825
vt 0.955727 0.022087
vt 0.025270 0.973773
vt 0.846571 0.027994
vt 0.711196 0.613429
vt 0.860811 0.043808
vt 0.042393 0.905010
vn 0.000000 -0.022208 0.999753
vn 0.000000 -0.022208 0.999753
vn 0.000000 -0.022208 0.999753
vn 0.000000 -0.022208 0.999753
vn 0.000000 1.000000 0.000000
vn 0.000000 1.000000 0.000000
vn 0.000000 1.000000 0.000000
vn 0.000000 1.000000 0.000000
vn 0.000000 0.000000 -1.000000
vn 0.000000 0.000000 -1.000000
vn 0.000000 0.000000 -1.000000
vn 0.000000 0.000000 -1.000000
vn 0.000000 -1.000000 -0.000000
vn 0.000000 -1.000000 -0.000000
vn 0.000000 -1.000000 -0.000000
vn 0.000000 -1.000000 -0.000000
vn 1.000000 -0.000000 0.000000
vn 1.000000 -0.000000 0.000000
vn 1.000000 0.000000 0.000000
vn 1.000000 0.000000 0.000000
vn -1.000000 0.000000 0.000000
vn -1.000000 0.000000 0.000000
vn -1.000000 0.000000 0.000000
vn -1.000000 0.000000 0.000000
vn -1.000000 0.000000 0.000000
vn -1.000000 0.000000 0.000000
vn 0.000000 1.000000 0.000000
vn 0.000000 1.000000 0.000000
vn 1.000000 -0.000000 0.000000
vn 1.000000 -0.000000 0.000000
vn 0.000000 0.000000 -1.000000
vn 0.000000 0.000000 -1.000000
vn 1.000000 0.000000 0.000000
vn 1.000000 0.000000 0.000000
vn 0.000000 -0.858113 0.513462
vn 0.000000 -0.858113 0.513462
vn 0.000000 -0.858113 0.513462
vn 0.000000 -0.858113 0.513462
vn -1.000000 0.000000 0.000000
vn -1.000000 0.000000 0.000000
vn 0.000000 -1.000000 0.000000
vn 0.000000 -1.000000 0.000000
vn 0.000000 0.000000 -1.000000
vn 0.000000 0.000000 -1.000000
vn 0.000000 0.000000 -1.000000
vn 0.000000 1.000000 0.000000
vn 0.000000 1.000000 0.000000
vn 0.000000 1.000000 0.000000
vn 0.000000 -0.022208 0.999753
vn 0.000000 -0.022208 0.999753
vn 0.000000 -1.000000 0.000000
vn 0.000000 -1.000000 0.000000
vn 0.000000 -1.000000 0.000000
vn 0.000000 -1.000000 0.000000
vn -0.000000 0.000533 1.000000
vn -0.000000 0.000533 1.000000
vn 0.000000 0.000533 1.000000
vn 0.000000 0.000533 1.000000
vn 0.000000 -1.000000 0.000000
vn 0.000000 -1.000000 0.000000
vn 0.000000 0.000000 -1.000000
vn 0.000000 0.000000 -1.000000
vn 0.000000 0.000000 -1.000000
vn 0.000000 1.000000 0.000000
vn 0.000000 1.000000 0.000000
vn 0.000000 1.000000 0.000000
vn 0.000000 -0.022208 0.999753
vn 0.000000 -0.022208 0.999753
vn -0.000000 -0.858113 0.513462
vn -0.000000 -0.858113 0.513462
vn -0.000000 -0.858113 0.513462
vn -0.000000 -0.858113 0.513462
vn -1.000000 0.000098 0.000001
vn -1.000000 0.000286 -0.000114
vn -1.000000 0.000488 -0.000238
vn 1.000000 0.000000 0.000000
vn 0.999772 -0.019122 0.009477
vn 0.999921 -0.011565 0.004848
vn 0.999989 -0.004702 0.000645
vn -1.000000 0.000000 0.000000
vn 0.000071 -0.999982 0.005987
vn 0.000071 -0.999982 0.005987
vn 0.000071 -0.999982 0.005987
vn 0.000071 -0.999982 0.005987
vn 0.000000 -0.009466 0.999955
vn 0.000000 -0.009466 0.999955
vn 0.000000 -0.009466 0.999955
vn 0.000000 -0.009466 0.999955
vn -0.999999 0.001341 0.000000
vn -0.999999 0.001341 0.000000
vn -0.999999 0.001341 0.000000
vn -0.999999 0.001341 0.000000
vn -0.000045 -0.001138 -0.999999
vn -0.000045 -0.001138 -0.999999
vn -0.000045 -0.001138 -0.999999
vn -0.000045 -0.001138 -0.999999
vn 0.997486 -0.070859 0.000311
vn 0.997486 -0.070859 0.000311
vn 0.997486 -0.070859 0.000311
vn 0.997486 -0.070859 0.000311
vn 0.996154 -0.075690 0.044131
vn 0.996154 -0.075690 0.044131
vn -0.000000 0.000532 1.000000
vn -0.000000 0.000532 1.000000
vn -0.999998 0.001833 -0.001063
vn -0.999998 0.001833 -0.001063
s 1
g shelf_low
usemtl initialShadingGroup
f 23/30/1 2/42/2 4/50/3 22/51/4
s 2
f 21/3/5 12/4/6 6/11/7 20/12/8
s 3
f 20/6/9 6/7/10 8/8/11 19/19/12
s 4
f 18/2/13 14/13/14 15/14/15 17/16/16
s 5
f 12/9/17 9/15/18 8/45/19 6/47/20
s 6
f 7/1/21 10/5/22 11/10/23 5/48/24
f 11/10/23 10/5/22 1/56/25 3/65/26
s 2
f 22/21/27 4/22/28 12/4/6 21/3/5
s 5
f 2/57/29 9/15/18 12/9/17 4/59/30
s 3
f 19/19/12 8/8/11 14/20/31 18/26/32
s 5
f 8/45/19 9/15/18 15/60/33 14/61/34
s off
f 2/18/35 23/58/36 17/16/37 15/14/38
s 6
f 10/5/22 7/1/21 13/69/39 16/70/40
s 4
f 26/62/41 18/2/13 17/16/16 25/68/42
s 3
f 27/27/43 19/19/12 18/26/32 26/43/44
f 28/63/45 20/6/9 19/19/12 27/27/43
s 2
f 29/28/46 21/3/5 20/12/8 28/29/47
f 30/41/48 22/21/27 21/3/5 29/28/46
s 1
f 31/52/49 23/30/1 22/51/4 30/53/50
s off
f 36/35/51 35/83/52 37/85/53 38/86/54
s 7
f 39/25/55 40/32/56 24/39/57 32/75/58
s 4
f 13/71/59 26/62/41 25/68/42 16/72/60
s 3
f 7/64/61 27/27/43 26/43/44 13/66/62
f 5/67/63 28/63/45 27/27/43 7/64/61
s 2
f 11/44/64 29/28/46 28/29/47 5/46/65
f 3/49/66 30/41/48 29/28/46 11/44/64
s 1
f 1/54/67 31/52/49 30/53/50 3/55/68
s off
f 25/68/69 31/73/70 1/74/71 16/72/72
s 8
f 24/17/73 40/24/74 33/33/75
s 5
f 15/60/33 9/15/18 2/57/76
s 9
f 34/31/77 39/34/78 32/38/79
s 6
f 10/5/22 16/70/40 1/56/80
s off
f 23/23/81 31/87/82 34/89/83 33/90/84
f 32/75/85 24/39/86 35/76/87 36/77/88
f 24/17/89 33/33/90 37/36/91 35/40/92
f 33/37/93 34/91/94 38/93/95 37/94/96
f 34/31/97 32/38/98 36/78/99 38/79/100
s 9
f 25/80/101 39/34/78 34/31/77 31/84/102
s 7
f 17/81/103 40/32/56 39/25/55 25/82/104
s 8
f 33/33/75 40/24/74 17/88/105 23/92/106
